<svg xmlns="http://www.w3.org/2000/svg" xmlns:xlink="http://www.w3.org/1999/xlink" width="500" zoomAndPan="magnify" viewBox="0 0 375 374.999991" height="500" preserveAspectRatio="xMidYMid meet" version="1.0"><defs><g/><clipPath id="f8a932dfe7"><path d="M 75 64 L 245 64 L 245 268.714844 L 75 268.714844 Z M 75 64 " clip-rule="nonzero"/></clipPath><clipPath id="6b2536edb1"><path d="M 74.542969 7.382812 L 300 7.382812 L 300 268 L 74.542969 268 Z M 74.542969 7.382812 " clip-rule="nonzero"/></clipPath></defs><g fill="#0d0d0d" fill-opacity="1"><g transform="translate(-0.326313, 350.274739)"><g><path d="M 54.890625 -29.90625 C 54.890625 -20.320312 52.253906 -12.941406 46.984375 -7.765625 C 41.710938 -2.585938 34.304688 0 24.765625 0 L 6.203125 0 L 6.203125 -57.359375 L 26.046875 -57.359375 C 35.253906 -57.359375 42.363281 -55.003906 47.375 -50.296875 C 52.382812 -45.585938 54.890625 -38.789062 54.890625 -29.90625 Z M 38.8125 -29.34375 C 38.8125 -34.601562 37.769531 -38.5 35.6875 -41.03125 C 33.601562 -43.570312 30.445312 -44.84375 26.21875 -44.84375 L 21.703125 -44.84375 L 21.703125 -12.71875 L 25.15625 -12.71875 C 29.863281 -12.71875 33.316406 -14.082031 35.515625 -16.8125 C 37.710938 -19.539062 38.8125 -23.71875 38.8125 -29.34375 Z M 38.8125 -29.34375 "/></g></g></g><g fill="#0d0d0d" fill-opacity="1"><g transform="translate(66.604448, 350.274739)"><g><path d="M 41.390625 0 L 38.578125 -10.75 L 19.9375 -10.75 L 17.03125 0 L 0 0 L 18.71875 -57.59375 L 39.390625 -57.59375 L 58.34375 0 Z M 35.359375 -23.46875 L 32.875 -32.875 C 32.300781 -34.96875 31.601562 -37.675781 30.78125 -41 C 29.957031 -44.320312 29.414062 -46.703125 29.15625 -48.140625 C 28.914062 -46.804688 28.445312 -44.609375 27.75 -41.546875 C 27.0625 -38.492188 25.53125 -32.46875 23.15625 -23.46875 Z M 35.359375 -23.46875 "/></g></g></g><g fill="#0d0d0d" fill-opacity="1"><g transform="translate(132.907411, 350.274739)"><g><path d="M 60.8125 0 L 40.5 0 L 19.546875 -40.421875 L 19.1875 -40.421875 C 19.6875 -34.054688 19.9375 -29.203125 19.9375 -25.859375 L 19.9375 0 L 6.203125 0 L 6.203125 -57.359375 L 26.453125 -57.359375 L 47.328125 -17.5 L 47.5625 -17.5 C 47.1875 -23.28125 47 -27.921875 47 -31.421875 L 47 -57.359375 L 60.8125 -57.359375 Z M 60.8125 0 "/></g></g></g><g fill="#0d0d0d" fill-opacity="1"><g transform="translate(207.881814, 350.274739)"><g><path d="M 43.71875 -17.421875 C 43.71875 -13.859375 42.8125 -10.695312 41 -7.9375 C 39.195312 -5.1875 36.59375 -3.046875 33.1875 -1.515625 C 29.789062 0.015625 25.804688 0.78125 21.234375 0.78125 C 17.410156 0.78125 14.203125 0.515625 11.609375 -0.015625 C 9.023438 -0.554688 6.332031 -1.492188 3.53125 -2.828125 L 3.53125 -16.640625 C 6.488281 -15.117188 9.5625 -13.929688 12.75 -13.078125 C 15.945312 -12.234375 18.878906 -11.8125 21.546875 -11.8125 C 23.847656 -11.8125 25.535156 -12.207031 26.609375 -13 C 27.679688 -13.800781 28.21875 -14.832031 28.21875 -16.09375 C 28.21875 -16.875 28 -17.554688 27.5625 -18.140625 C 27.132812 -18.734375 26.441406 -19.328125 25.484375 -19.921875 C 24.523438 -20.523438 21.984375 -21.757812 17.859375 -23.625 C 14.117188 -25.320312 11.3125 -26.96875 9.4375 -28.5625 C 7.5625 -30.15625 6.171875 -31.984375 5.265625 -34.046875 C 4.367188 -36.117188 3.921875 -38.566406 3.921875 -41.390625 C 3.921875 -46.679688 5.84375 -50.800781 9.6875 -53.75 C 13.53125 -56.707031 18.816406 -58.1875 25.546875 -58.1875 C 31.484375 -58.1875 37.539062 -56.8125 43.71875 -54.0625 L 38.96875 -42.109375 C 33.601562 -44.566406 28.972656 -45.796875 25.078125 -45.796875 C 23.054688 -45.796875 21.585938 -45.441406 20.671875 -44.734375 C 19.765625 -44.023438 19.3125 -43.148438 19.3125 -42.109375 C 19.3125 -40.984375 19.890625 -39.972656 21.046875 -39.078125 C 22.210938 -38.191406 25.375 -36.570312 30.53125 -34.21875 C 35.46875 -31.988281 38.898438 -29.597656 40.828125 -27.046875 C 42.753906 -24.503906 43.71875 -21.296875 43.71875 -17.421875 Z M 43.71875 -17.421875 "/></g></g></g><g fill="#0d0d0d" fill-opacity="1"><g transform="translate(262.217404, 350.274739)"><g><path d="M 41.390625 0 L 38.578125 -10.75 L 19.9375 -10.75 L 17.03125 0 L 0 0 L 18.71875 -57.59375 L 39.390625 -57.59375 L 58.34375 0 Z M 35.359375 -23.46875 L 32.875 -32.875 C 32.300781 -34.96875 31.601562 -37.675781 30.78125 -41 C 29.957031 -44.320312 29.414062 -46.703125 29.15625 -48.140625 C 28.914062 -46.804688 28.445312 -44.609375 27.75 -41.546875 C 27.0625 -38.492188 25.53125 -32.46875 23.15625 -23.46875 Z M 35.359375 -23.46875 "/></g></g></g><g fill="#0d0d0d" fill-opacity="1"><g transform="translate(328.520374, 350.274739)"><g><path d="M 6.203125 0 L 6.203125 -57.359375 L 21.703125 -57.359375 L 21.703125 -12.515625 L 43.796875 -12.515625 L 43.796875 0 Z M 6.203125 0 "/></g></g></g><g clip-path="url(#f8a932dfe7)"><path fill="#000000" d="M 75.675781 65.273438 L 75.675781 268.445312 C 83.554688 268.414062 91.429688 268.382812 99.304688 268.359375 C 102.796875 268.34375 106.300781 267.667969 110.707031 267.203125 L 110.707031 101.988281 C 130.527344 101.988281 148.4375 101.902344 166.335938 102.015625 C 191.34375 102.171875 207.484375 116.8125 207.265625 138.949219 C 207.0625 160.527344 191.097656 174.867188 166.894531 175.070312 C 154.625 175.179688 142.363281 175.089844 129.980469 175.089844 L 129.980469 212.601562 C 143.296875 212.601562 155.660156 212.808594 168.011719 212.566406 C 212.121094 211.707031 244.882812 179.839844 244.71875 138.128906 C 244.558594 96.609375 211.511719 65.023438 167.246094 64.496094 C 140.476562 64.175781 113.695312 64.394531 86.929688 64.472656 C 83.507812 64.484375 80.03125 64.890625 75.675781 65.273438 Z M 75.675781 65.273438 " fill-opacity="1" fill-rule="nonzero"/></g><g clip-path="url(#6b2536edb1)"><path fill="#000000" d="M 189.003906 11.285156 C 151 8.773438 112.742188 7.5625 74.542969 7.894531 L 74.542969 46.109375 C 105.40625 46.089844 136.261719 46.140625 167.125 46.265625 C 175.367188 46.304688 183.84375 46.816406 191.804688 48.777344 C 238.066406 60.167969 266.867188 101.851562 261.976562 149.574219 C 257.351562 194.761719 218.453125 229.722656 171.363281 230.796875 C 157.671875 231.109375 143.972656 230.84375 129.910156 230.84375 L 129.910156 266.554688 C 150.519531 266.554688 170.414062 268.476562 189.824219 266.195312 C 252.078125 258.878906 300.394531 201.804688 299.894531 138.117188 C 299.394531 73.644531 251.667969 15.433594 189.003906 11.285156 Z M 189.003906 11.285156 " fill-opacity="1" fill-rule="nonzero"/></g></svg>